<?xml version="1.0" standalone="no"?>
<!DOCTYPE svg PUBLIC "-//W3C//DTD SVG 20010904//EN"
 "http://www.w3.org/TR/2001/REC-SVG-20010904/DTD/svg10.dtd">
<svg version="1.0" xmlns="http://www.w3.org/2000/svg"
 width="128.000000pt" height="128.000000pt" viewBox="0 0 128.000000 128.000000"
 preserveAspectRatio="xMidYMid meet">
<metadata>
Created by potrace 1.12, written by Peter Selinger 2001-2015
</metadata>
<g transform="translate(0.000000,128.000000) scale(0.100000,-0.100000)"
fill="#000000" stroke="none">
<path d="M922 968 c-16 -87 -58 -166 -147 -278 -100 -126 -127 -182 -133 -274
-3 -44 0 -81 6 -92 11 -18 11 -18 12 1 0 31 38 91 130 205 48 60 98 137 118
180 31 66 36 87 40 175 2 55 0 111 -5 123 -8 20 -11 15 -21 -40z"/>
<path d="M275 993 c38 -87 48 -139 61 -322 14 -208 29 -281 70 -362 29 -59 97
-135 144 -163 l32 -18 -27 42 c-69 110 -93 206 -106 429 -13 235 -34 301 -122
376 -44 38 -63 45 -52 18z"/>
<path d="M410 915 c0 -4 7 -19 15 -35 25 -49 43 -147 55 -305 18 -231 48 -339
121 -431 31 -40 120 -116 127 -109 2 2 -5 17 -17 34 -63 89 -97 213 -112 416
-12 166 -29 256 -58 314 -27 51 -131 144 -131 116z"/>
<path d="M969 827 c-22 -114 -65 -194 -171 -322 -50 -61 -99 -128 -109 -150
-22 -47 -24 -137 -5 -180 12 -27 14 -28 21 -10 24 66 62 130 120 200 87 106
129 170 150 230 21 57 32 232 18 282 -7 30 -9 26 -24 -50z"/>
</g>
</svg>
